<svg xmlns="http://www.w3.org/2000/svg" viewBox="0 0 512 512" id="sheep">
  <path fill="#eab67d" d="M347.09 314.13h59.43v125.03h-59.43z"></path>
  <path fill="#1a1a1a" d="M398.63 322.02v109.24h-43.64V322.02h43.64m15.79-15.79H339.2v140.82h75.22V306.23z"></path>
  <path fill="#f7d5a9" d="M371.92 314.13h59.43v125.03h-59.43z"></path>
  <path fill="#1a1a1a" d="M423.46 322.02v109.24h-43.64V322.02h43.64m15.79-15.79h-75.22v140.82h75.22V306.23z"></path>
  <path fill="#eab67d" d="M173.25 314.13h59.43v125.03h-59.43z"></path>
  <path fill="#1a1a1a" d="M224.79 322.02v109.24h-43.64V322.02h43.64m15.79-15.79h-75.22v140.82h75.22V306.23z"></path>
  <path fill="#f7d5a9" d="M198.09 314.13h59.43v125.03h-59.43z"></path>
  <path fill="#1a1a1a" d="M249.62 322.02v109.24h-43.64V322.02h43.64m15.79-15.79h-75.22v140.82h75.22V306.23z"></path>
  <path fill="#fff" d="M343.45 397.76c-15.16 0-29.91-5.39-41.51-15-11.59 9.55-26.29 14.9-41.4 14.9-7.57 0-15.04-1.32-22.21-3.93-17.46-6.35-31.34-19.97-38.15-37.09-1 .05-2.01.07-3.01.07-23.17 0-44.75-12.45-56.32-32.48a64.97 64.97 0 0 1-.18-64.68c-17.39-14.82-25.87-37.87-21.84-60.74 4.05-22.99 20.35-42.09 42.14-49.91a64.908 64.908 0 0 1 21.61-35.49c11.68-9.8 26.5-15.2 41.72-15.2 7.46 0 14.92 1.3 21.94 3.8 11.57-19.7 32.81-32.06 56.03-32.06 23.29 0 44.55 12.41 56.11 32.19a65.423 65.423 0 0 1 21.79-3.75c15.23 0 30.04 5.4 41.72 15.2a64.843 64.843 0 0 1 21.65 35.65c21.67 7.86 37.89 26.94 41.93 49.84 4.04 22.93-4.49 46.02-21.96 60.84 11.27 19.87 11.36 44.44-.25 64.54-11.57 20.04-33.15 32.48-56.32 32.48-1.06 0-2.12-.03-3.19-.08-6.84 17.06-20.7 30.62-38.1 36.95a64.144 64.144 0 0 1-22.2 3.95z"></path>
  <path fill="#1a1a1a" d="M302.27 77.85c23.47 0 43.63 14.17 52.4 34.42a57.22 57.22 0 0 1 25.5-5.98c12.94 0 25.96 4.38 36.65 13.35 11.22 9.42 17.9 22.23 19.81 35.68 20.58 5.68 37.12 22.71 41.07 45.13 4.08 23.12-6.38 45.43-24.8 57.58 13.08 17.71 15.25 42.2 3.53 62.48-10.57 18.31-29.75 28.54-49.48 28.54-2.87 0-5.75-.22-8.62-.66-4.85 16.99-17.49 31.5-35.37 38.01-6.44 2.34-13.03 3.46-19.51 3.46-15.71 0-30.76-6.53-41.5-17.88-10.73 11.29-25.75 17.79-41.41 17.79-6.48 0-13.07-1.11-19.51-3.46-17.92-6.52-30.57-21.09-35.4-38.13-2.82.42-5.65.63-8.46.63-19.72 0-38.91-10.23-49.48-28.54-11.74-20.33-9.54-44.87 3.61-62.59-18.35-12.17-28.76-34.44-24.69-57.51 3.97-22.49 20.59-39.56 41.26-45.18 1.94-13.39 8.61-26.15 19.79-35.54 10.69-8.97 23.71-13.35 36.65-13.35 8.82 0 17.62 2.04 25.62 6.04 8.79-20.17 28.91-34.29 52.34-34.29m0-15.79c-23.9 0-45.91 11.67-59.41 30.66-6.05-1.58-12.3-2.4-18.56-2.4-17.08 0-33.7 6.05-46.8 17.04a72.706 72.706 0 0 0-23.18 35.65c-9.4 4-17.89 9.94-24.92 17.49-9.56 10.28-15.91 23.05-18.35 36.92-4.15 23.53 3.52 47.23 19.87 63.81a72.86 72.86 0 0 0 3.09 66.92c12.62 21.86 35.87 35.67 61.05 36.4 8.22 16.83 22.73 30.08 40.57 36.58a72.535 72.535 0 0 0 24.91 4.41c14.82 0 29.3-4.6 41.39-12.91 12.12 8.38 26.65 13.01 41.53 13.01 8.49 0 16.87-1.48 24.91-4.41 17.78-6.47 32.26-19.67 40.5-36.42 25.25-.67 48.59-14.49 61.25-36.41 11.95-20.69 12.85-45.58 3.16-66.76a72.847 72.847 0 0 0 19.99-63.94c-2.44-13.83-8.76-26.57-18.27-36.84a73.076 73.076 0 0 0-24.78-17.49 72.708 72.708 0 0 0-23.24-35.84 72.934 72.934 0 0 0-46.8-17.04c-6.2 0-12.4.8-18.39 2.36-13.5-19.07-35.55-30.79-59.52-30.79z"></path>
  <path fill="#eab67d" d="M48.16 239.21c-13.55 0-19.65-5.63-22.38-10.36-2.7-4.67-5.53-14.77 5.77-29.93 7-9.39 17.97-18.66 30.87-26.11 15.49-8.94 31.7-14.07 44.48-14.07 13.55 0 19.65 5.63 22.38 10.36 2.7 4.67 5.53 14.77-5.77 29.92-7 9.39-17.96 18.66-30.87 26.11-15.5 8.95-31.71 14.08-44.48 14.08z"></path>
  <path fill="#1a1a1a" d="M106.9 166.64c7.44 0 13.04 2.09 15.54 6.41 6.16 10.67-8.95 30.93-33.75 45.25-14.75 8.52-29.61 13.02-40.53 13.02-7.44 0-13.04-2.09-15.54-6.41-6.16-10.67 8.95-30.93 33.75-45.25 14.76-8.53 29.62-13.02 40.53-13.02m0-15.79c-14.12 0-31.77 5.51-48.42 15.13-13.81 7.97-25.62 18-33.25 28.23-14.01 18.78-9.95 32.24-6.28 38.59 3.08 5.34 10.98 14.31 29.21 14.31 14.12 0 31.77-5.51 48.42-15.13 13.81-7.97 25.62-18 33.25-28.23 14.01-18.78 9.95-32.24 6.28-38.59-3.08-5.35-10.98-14.31-29.21-14.31z"></path>
  <path fill="#eab67d" d="M268.32 239.21c-12.77 0-28.99-5.13-44.48-14.07-12.9-7.45-23.87-16.72-30.87-26.11-11.3-15.16-8.47-25.25-5.77-29.93 2.73-4.73 8.83-10.36 22.38-10.36 12.77 0 28.99 5.13 44.48 14.07 12.9 7.45 23.87 16.72 30.87 26.11 11.31 15.16 8.47 25.26 5.77 29.93-2.73 4.73-8.82 10.36-22.38 10.36z"></path>
  <path fill="#1a1a1a" d="M209.58 166.64c10.92 0 25.78 4.5 40.53 13.02 24.8 14.32 39.92 34.58 33.75 45.25-2.5 4.32-8.1 6.41-15.54 6.41-10.92 0-25.78-4.5-40.53-13.02-24.8-14.32-39.92-34.58-33.75-45.25 2.5-4.33 8.1-6.41 15.54-6.41m0-15.79c-18.23 0-26.13 8.96-29.21 14.31-3.67 6.35-7.73 19.81 6.28 38.59 7.63 10.23 19.44 20.25 33.25 28.23 16.66 9.62 34.3 15.13 48.42 15.13 18.23 0 26.13-8.96 29.21-14.31 3.67-6.35 7.73-19.81-6.28-38.59-7.63-10.23-19.44-20.25-33.25-28.23-16.65-9.62-34.3-15.13-48.42-15.13z"></path>
  <path fill="#1a1a1a" d="M265.9 152.31c-15.04-8.69-30.9-14.42-45.27-16.42-9.33-7.99-19.78-14.07-30.85-18.08-.71.54-1.44 1.07-2.13 1.66-11.18 9.38-17.85 22.14-19.79 35.54-20.66 5.63-37.29 22.69-41.26 45.18-4.07 23.07 6.34 45.34 24.69 57.51-13.15 17.72-15.35 42.26-3.61 62.59 6.83 11.83 17.26 20.28 29.1 24.78 38.4-7.98 69.99-40.22 80.84-82.92 3.68.49 7.26.74 10.73.74 27.12 0 39-15.52 42.85-22.19 4.52-7.82 12.85-28.92-7.3-55.93-8.88-11.91-22.38-23.44-38-32.46z" opacity=".2"></path>
  <ellipse cx="158.24" cy="229.6" fill="#f7d5a9" rx="79.73" ry="93.7"></ellipse>
  <path fill="#1a1a1a" d="M158.24 143.8c39.68 0 71.84 38.42 71.84 85.81s-32.16 85.81-71.84 85.81S86.4 276.99 86.4 229.6s32.17-85.8 71.84-85.8m0-15.79c-23.94 0-46.28 10.93-62.9 30.79-15.94 19.04-24.72 44.19-24.72 70.81s8.78 51.77 24.72 70.81c16.62 19.85 38.96 30.79 62.9 30.79s46.28-10.93 62.9-30.79c15.94-19.04 24.72-44.19 24.72-70.81s-8.78-51.77-24.72-70.81c-16.62-19.86-38.96-30.79-62.9-30.79z"></path>
  <path fill="#1a1a1a" d="M243.85 135.78a54.406 54.406 0 0 0-34.92-12.72c-3.47 0-6.93.34-10.34.99a54.35 54.35 0 0 0-42.31-20.22c-16.64 0-32.06 7.59-42.23 20.12-3.44-.67-6.95-1.02-10.46-1.02-12.74 0-25.15 4.52-34.92 12.72-11.13 9.34-17.95 22.44-19.22 36.91-1.27 14.47 3.18 28.56 12.51 39.69a54.287 54.287 0 0 0 41.67 19.42c12.75 0 25.15-4.52 34.93-12.72a54.56 54.56 0 0 0 7.28-7.38c3.41.66 6.89 1 10.44 1 3.5 0 6.95-.33 10.32-.97 2.18 2.7 4.64 5.2 7.35 7.47a54.453 54.453 0 0 0 34.93 12.72c16.12 0 31.31-7.08 41.67-19.42 19.27-22.96 16.27-57.32-6.7-76.59z" opacity=".2"></path>
  <path fill="#fff" d="M208.88 208.11c-10.9 0-21.5-3.86-29.85-10.88-3.6-3.02-6.67-6.49-9.16-10.36a46.183 46.183 0 0 1-13.58 2.02c-4.7 0-9.28-.69-13.68-2.05a46.065 46.065 0 0 1-9.11 10.28 46.535 46.535 0 0 1-29.85 10.87c-13.79 0-26.77-6.05-35.62-16.6-7.98-9.51-11.78-21.56-10.7-33.92s6.92-23.57 16.43-31.55a46.489 46.489 0 0 1 29.84-10.87c4.64 0 9.28.71 13.71 2.06 8.48-13.06 23.08-21.17 38.98-21.17 15.95 0 30.57 8.14 39.04 21.26 4.4-1.34 9-2.03 13.61-2.03 10.89 0 21.49 3.86 29.84 10.87 19.63 16.47 22.2 45.85 5.73 65.48a46.433 46.433 0 0 1-35.63 16.59z"></path>
  <path fill="#1a1a1a" d="M156.28 103.83c15.87 0 29.49 9.58 35.42 23.27 5.39-2.68 11.3-4.04 17.24-4.04 8.75 0 17.54 2.96 24.77 9.02 16.32 13.7 18.45 38.03 4.76 54.36-7.63 9.1-18.56 13.78-29.58 13.78a38.41 38.41 0 0 1-24.78-9.03c-4.76-4-8.31-8.9-10.61-14.24a38.361 38.361 0 0 1-17.21 4.05c-6.22 0-12.08-1.48-17.29-4.09a38.395 38.395 0 0 1-10.58 14.16 38.41 38.41 0 0 1-24.78 9.03c-11.01 0-21.94-4.69-29.58-13.78-13.7-16.32-11.57-40.66 4.76-54.36a38.428 38.428 0 0 1 24.77-9.02c5.96 0 11.91 1.38 17.31 4.08 5.95-13.64 19.55-23.19 35.38-23.19m0-15.78c-16.64 0-32.06 7.59-42.23 20.12-3.44-.67-6.95-1.02-10.46-1.02-12.74 0-25.15 4.52-34.92 12.72-22.97 19.27-25.97 53.63-6.7 76.6a54.287 54.287 0 0 0 41.67 19.42c12.75 0 25.15-4.52 34.93-12.72a54.56 54.56 0 0 0 7.28-7.38c3.41.66 6.89 1 10.44 1 3.5 0 6.95-.33 10.32-.97 2.18 2.7 4.64 5.2 7.35 7.47a54.453 54.453 0 0 0 34.93 12.72c16.12 0 31.31-7.08 41.67-19.42 19.27-22.97 16.26-57.33-6.7-76.6a54.406 54.406 0 0 0-34.92-12.72c-3.47 0-6.93.34-10.34.99a54.376 54.376 0 0 0-42.32-20.21z"></path>
  <g fill="#1a1a1a">
    <circle cx="127.31" cy="237.52" r="7.89"></circle>
    <circle cx="185.2" cy="237.52" r="7.89"></circle>
  </g>
  <path fill="#1a1a1a" d="M181.15 415.47h68.48v15.79h-68.48zM354.82 415.47h68.48v15.79h-68.48z" opacity=".2"></path>
</svg>
